<svg width="890" height="950" viewBox="0 0 890 950" fill="none" xmlns="http://www.w3.org/2000/svg">
<path d="M826.924 458.771C826.924 458.771 892.04 398.07 888.889 332.092L884.951 326.55C884.951 326.55 860.27 341.329 843.203 338.162L833.226 344.496C833.226 344.496 824.824 337.37 810.12 349.246C810.12 349.246 797.78 328.925 783.864 335.259L793.054 326.022C793.054 326.022 787.54 307.284 744.217 285.643C744.217 285.643 735.815 276.406 723.999 248.431L706.933 237.61C706.933 237.61 704.57 221.248 702.207 204.093C702.207 204.093 693.017 191.689 682.777 190.898C682.777 190.898 681.201 183.772 680.414 169.257C680.414 169.257 672.012 168.465 659.409 141.282C659.409 141.282 644.705 115.682 640.767 113.307L634.465 101.695L637.616 96.9442C637.616 96.9442 651.532 120.169 661.509 124.127C661.509 124.127 674.637 107.765 660.722 79.7897C660.722 79.7897 646.018 86.9154 625.801 76.6228C625.801 76.6228 606.371 80.5815 597.969 86.6515C597.969 86.6515 590.88 79.5258 576.439 84.2763C576.439 84.2763 581.165 73.4558 538.63 75.831L550.97 72.6641L525.501 67.9136C525.501 67.9136 528.652 65.5384 526.289 60.7879C523.926 56.0375 495.307 53.6622 485.329 74.7754C485.329 74.7754 496.094 85.5959 479.028 91.9298C479.028 91.9298 457.497 77.9423 440.431 79.5258C440.431 79.5258 432.029 71.8723 432.029 63.9549C432.029 63.9549 418.113 56.3014 404.197 60.7879C404.197 60.7879 395.795 46.8005 383.192 51.5509C383.192 51.5509 366.125 42.3139 387.13 31.2295C387.13 31.2295 391.069 20.409 379.516 14.0751C379.516 14.0751 386.605 13.2834 387.13 3.25461C387.13 3.25461 372.427 -3.87107 360.086 7.21333C360.086 7.21333 347.746 -1.23193 325.953 8.00507C325.953 8.00507 292.608 -5.19065 263.988 12.7555H250.072C250.072 12.7555 224.604 30.7017 200.448 5.62984C200.448 5.62984 190.47 8.79681 183.381 24.3678C183.381 24.3678 163.164 38.3552 147.672 42.3139C147.672 42.3139 133.757 56.3014 135.332 73.4558C135.332 73.4558 119.841 92.1937 95.1598 96.6803C95.1598 96.6803 83.607 104.334 80.4562 116.21C80.4562 116.21 65.7527 116.21 57.3506 140.226C57.3506 140.226 30.3066 161.867 23.2174 182.188C23.2174 182.188 41.0717 216.497 3 269.28L12.1897 285.643L5.10051 304.381C5.10051 304.381 36.8707 315.201 47.6358 371.943C47.6358 371.943 74.6798 391.472 108.813 415.489C108.813 415.489 171.566 396.751 191.521 413.905C191.521 413.905 279.742 366.401 290.507 417.864C290.507 417.864 289.719 426.309 330.679 416.28C330.679 416.28 356.936 432.643 338.294 459.035C338.294 459.035 342.232 473.814 331.992 487.009C331.992 487.009 335.93 499.413 335.93 501.789C335.93 501.789 391.594 554.572 390.806 589.672L385.292 594.423C385.292 594.423 400.784 623.189 395.27 636.385C389.756 649.581 373.477 640.344 372.952 709.489C372.952 709.489 408.661 760.161 408.661 777.051C408.661 777.051 403.147 819.805 430.978 846.197C430.978 846.197 446.47 874.963 446.47 880.506C446.47 880.506 460.386 888.951 449.62 900.827C449.62 900.827 451.984 923.26 472.726 924.843C472.726 924.843 497.407 911.647 526.814 918.509C556.221 925.635 589.567 890.534 605.058 864.935L623.7 850.947C623.7 850.947 639.191 830.626 630.002 817.43C630.002 817.43 633.94 806.61 644.705 805.026C644.705 805.026 680.939 805.026 666.498 751.451C666.498 751.451 652.582 742.214 684.352 728.227C684.352 728.227 694.33 721.893 697.48 713.448C697.48 713.448 740.803 704.211 745.53 677.555C745.53 677.555 744.742 643.247 744.742 633.218C744.742 633.218 757.082 624.773 737.128 616.064C737.128 616.064 738.703 603.66 729.513 594.95C729.513 594.95 745.004 577.796 727.15 567.767C727.15 567.767 733.452 530.555 769.685 503.108C770.473 503.108 794.366 465.105 826.924 458.771ZM852.918 655.915C852.918 655.915 834.539 690.487 799.618 697.613C799.618 697.613 785.702 699.196 784.652 714.767C784.652 714.767 793.054 741.951 778.613 756.994C778.613 756.994 766.01 769.134 772.574 793.15C772.574 793.15 767.585 806.082 775.199 814.791C775.199 814.791 784.126 820.333 784.652 823.236C784.652 823.236 802.243 813.207 810.645 814.791C810.645 814.791 831.65 768.606 846.617 730.074C846.617 730.074 858.169 711.6 860.007 691.015L863.421 698.933C863.421 698.933 878.387 681.778 860.007 651.692C859.745 651.164 853.443 649.845 852.918 655.915Z" stroke="#13307E" stroke-opacity="0.25" stroke-dasharray="2 2"/>
<path d="M823.924 482.95C823.924 482.95 889.04 422.249 885.889 356.271L881.951 350.729C881.951 350.729 857.27 365.508 840.203 362.341L830.226 368.675C830.226 368.675 821.824 361.549 807.12 373.425C807.12 373.425 794.78 353.104 780.864 359.438L790.054 350.201C790.054 350.201 784.54 331.463 741.217 309.822C741.217 309.822 732.815 300.585 720.999 272.61L703.933 261.789C703.933 261.789 701.57 245.427 699.207 228.272C699.207 228.272 690.017 215.868 679.777 215.077C679.777 215.077 678.201 207.951 677.414 193.436C677.414 193.436 669.012 192.644 656.409 165.461C656.409 165.461 641.705 139.861 637.767 137.486L631.465 125.874L634.616 121.123C634.616 121.123 648.532 144.348 658.509 148.306C658.509 148.306 671.637 131.944 657.722 103.969C657.722 103.969 643.018 111.094 622.801 100.802C622.801 100.802 603.371 104.76 594.969 110.83C594.969 110.83 587.88 103.705 573.439 108.455C573.439 108.455 578.165 97.6348 535.63 100.01L547.97 96.843L522.501 92.0926C522.501 92.0926 525.652 89.7173 523.289 84.9669C520.926 80.2164 492.307 77.8412 482.329 98.9543C482.329 98.9543 493.094 109.775 476.028 116.109C476.028 116.109 454.497 102.121 437.431 103.705C437.431 103.705 429.029 96.0513 429.029 88.1338C429.029 88.1338 415.113 80.4803 401.197 84.9669C401.197 84.9669 392.795 70.9794 380.192 75.7299C380.192 75.7299 363.125 66.4929 384.13 55.4085C384.13 55.4085 388.069 44.588 376.516 38.254C376.516 38.254 383.605 37.4623 384.13 27.4336C384.13 27.4336 369.427 20.3079 357.086 31.3923C357.086 31.3923 344.746 22.947 322.953 32.184C322.953 32.184 289.608 18.9883 260.988 36.9345H247.072C247.072 36.9345 221.604 54.8806 197.448 29.8088C197.448 29.8088 187.47 32.9758 180.381 48.5467C180.381 48.5467 160.164 62.5342 144.672 66.4929C144.672 66.4929 130.757 80.4803 132.332 97.6348C132.332 97.6348 116.841 116.373 92.1598 120.859C92.1598 120.859 80.607 128.513 77.4562 140.389C77.4562 140.389 62.7527 140.389 54.3506 164.405C54.3506 164.405 27.3066 186.046 20.2174 206.367C20.2174 206.367 38.0717 240.676 0 293.459L9.18972 309.822L2.10051 328.56C2.10051 328.56 33.8707 339.38 44.6358 396.122C44.6358 396.122 71.6798 415.651 105.813 439.668C105.813 439.668 168.566 420.93 188.521 438.084C188.521 438.084 276.742 390.58 287.507 442.043C287.507 442.043 286.719 450.488 327.679 440.459C327.679 440.459 353.936 456.822 335.294 483.214C335.294 483.214 339.232 497.993 328.992 511.188C328.992 511.188 332.93 523.592 332.93 525.968C332.93 525.968 388.594 578.75 387.806 613.851L382.292 618.601C382.292 618.601 397.784 647.368 392.27 660.564C386.756 673.76 370.477 664.523 369.952 733.668C369.952 733.668 405.661 784.34 405.661 801.23C405.661 801.23 400.147 843.984 427.978 870.376C427.978 870.376 443.47 899.142 443.47 904.684C443.47 904.684 457.386 913.13 446.62 925.006C446.62 925.006 448.984 947.439 469.726 949.022C469.726 949.022 494.407 935.826 523.814 942.688C553.221 949.814 586.567 914.713 602.058 889.114L620.7 875.126C620.7 875.126 636.191 854.805 627.002 841.609C627.002 841.609 630.94 830.789 641.705 829.205C641.705 829.205 677.939 829.205 663.498 775.63C663.498 775.63 649.582 766.393 681.352 752.406C681.352 752.406 691.33 746.072 694.48 737.627C694.48 737.627 737.803 728.39 742.53 701.734C742.53 701.734 741.742 667.426 741.742 657.397C741.742 657.397 754.082 648.952 734.128 640.242C734.128 640.242 735.703 627.839 726.513 619.129C726.513 619.129 742.004 601.975 724.15 591.946C724.15 591.946 730.452 554.734 766.685 527.287C767.473 527.287 791.366 489.284 823.924 482.95ZM849.918 680.094C849.918 680.094 831.539 714.666 796.618 721.792C796.618 721.792 782.702 723.375 781.652 738.946C781.652 738.946 790.054 766.13 775.613 781.173C775.613 781.173 763.01 793.313 769.574 817.329C769.574 817.329 764.585 830.261 772.199 838.97C772.199 838.97 781.126 844.512 781.652 847.415C781.652 847.415 799.243 837.386 807.645 838.97C807.645 838.97 828.65 792.785 843.617 754.253C843.617 754.253 855.169 735.779 857.007 715.194L860.421 723.112C860.421 723.112 875.387 705.957 857.007 675.871C856.745 675.343 850.443 674.023 849.918 680.094Z" fill="#13307E" fill-opacity="0.03"/>
</svg>
